<svg xmlns="http://www.w3.org/2000/svg" xmlns:xlink="http://www.w3.org/1999/xlink" width="920" height="849.85"><rect width="920" height="849.85" rx="5" ry="5" class="a"/><svg y="0%" x="0%"><circle cx="20" cy="20" r="6" fill="#ff5f58"/><circle cx="40" cy="20" r="6" fill="#ffbd2e"/><circle cx="60" cy="20" r="6" fill="#18c132"/></svg><svg height="759.85" viewBox="0 0 85 75.985" width="850" x="30" xmlns="http://www.w3.org/2000/svg" xmlns:xlink="http://www.w3.org/1999/xlink" y="65"><style>@keyframes m{0%{transform:translateX(-85px)}7.3%{transform:translateX(-170px)}9.1%{transform:translateX(-255px)}9.5%{transform:translateX(-340px)}10%{transform:translateX(-425px)}10.5%{transform:translateX(-510px)}11.8%{transform:translateX(-595px)}12.7%{transform:translateX(-680px)}13.6%{transform:translateX(-765px)}15.5%{transform:translateX(-850px)}16.4%{transform:translateX(-935px)}18.2%{transform:translateX(-1020px)}20%{transform:translateX(-1105px)}22.7%{transform:translateX(-1190px)}27.3%{transform:translateX(-1275px)}29.1%{transform:translateX(-1360px)}30.9%{transform:translateX(-1445px)}34.5%{transform:translateX(-1530px)}39.1%{transform:translateX(-1615px)}40.9%{transform:translateX(-1700px)}42.7%{transform:translateX(-1785px)}46.4%{transform:translateX(-1870px)}50.9%{transform:translateX(-1955px)}52.7%{transform:translateX(-2040px)}56.4%{transform:translateX(-2125px)}59.1%{transform:translateX(-2210px)}61.8%{transform:translateX(-2295px)}66.4%{transform:translateX(-2380px)}68.2%{transform:translateX(-2465px)}70%{transform:translateX(-2550px)}73.6%{transform:translateX(-2635px)}78.2%{transform:translateX(-2720px)}80%{transform:translateX(-2805px)}81.8%{transform:translateX(-2890px)}85.5%{transform:translateX(-2975px)}90%{transform:translateX(-3060px)}91.8%{transform:translateX(-3145px)}95.5%{transform:translateX(-3230px)}98.2%{transform:translateX(-3315px)}to{transform:translateX(-3400px)}}.a{fill:#282d35}.f{fill:#b9c0cb}.f,.g,.i,.j,.k{white-space:pre}.g{fill:#b9c0cb;font-weight:700}.i,.j,.k{fill:#a8cc8c}.j,.k{fill:#dbab79}.k{fill:#e88388}</style><g font-family="Monaco,Consolas,Menlo,'Bitstream Vera Sans Mono','Powerline Symbols',monospace" font-size="1.67"><defs><symbol id="1"><text y="1.67" class="f">$</text><text x="2.004" y="1.67" class="f">npx</text><text x="6.012" y="1.67" class="f">sidclaw-mcp-guard</text><text x="24.048" y="1.67" class="f">demo</text></symbol><symbol id="2"><text x="2.004" y="1.67" class="f">(\</text><text x="6.012" y="1.67" class="f">/)</text></symbol><symbol id="3"><text x="2.004" y="1.67" class="f">(</text><text x="4.008" y="1.67" class="f">o.o</text><text x="8.016" y="1.67" class="f">)</text><text x="11.022" y="1.67" class="g">SidClaw</text><text x="19.038" y="1.67" class="g">Guard</text></symbol><symbol id="4"><text x="3.006" y="1.67" class="f">/[</text><text x="5.01" y="1.67" class="g">✓</text><text x="6.012" y="1.67" class="f">]\</text><text x="11.022" y="1.67" class="f">MCP</text><text x="15.03" y="1.67" class="f">guardrails</text><text x="26.052" y="1.67" class="f">for</text><text x="30.06" y="1.67" class="f">dangerous</text><text x="40.08" y="1.67" class="f">tool</text><text x="45.09" y="1.67" class="f">calls</text></symbol><symbol id="5"><text x="2.004" y="1.67" class="f">Policy</text><text x="9.018" y="1.67" class="f">engine</text><text x="16.032" y="1.67" class="f">is</text><text x="19.038" y="1.67" class="f">real</text><text x="24.048" y="1.67" class="f">·</text><text x="26.052" y="1.67" class="f">upstream</text><text x="35.07" y="1.67" class="f">is</text><text x="38.076" y="1.67" class="f">simulated</text></symbol><symbol id="6"><text x="2.004" y="1.67" class="f">Agent</text><text x="9.018" y="1.67" class="f">→</text><text x="12.024" y="1.67" style="white-space:pre" fill="#71bef2">Guard</text><text x="19.038" y="1.67" class="f">→</text><text x="22.044" y="1.67" class="f">Upstream</text></symbol><symbol id="7"><text x="12.024" y="1.67" class="f">↓</text><text x="14.028" y="1.67" class="f">allow</text><text x="20.04" y="1.67" class="f">/</text><text x="22.044" y="1.67" class="f">hold</text><text x="27.054" y="1.67" class="f">/</text><text x="29.058" y="1.67" class="f">block</text></symbol><symbol id="8"><text x="2.004" y="1.67" class="f">───────────────────────────────────────────────</text></symbol><symbol id="9"><text x="2.004" y="1.67" class="g">SQL</text><text x="6.012" y="1.67" class="g">queries:</text></symbol><symbol id="10"><text x="2.004" y="1.67" class="i">✔</text><text x="4.008" y="1.67" class="i">ALLOW</text><text x="12.024" y="1.67" class="f">SELECT</text><text x="19.038" y="1.67" class="f">*</text><text x="21.042" y="1.67" class="f">FROM</text><text x="26.052" y="1.67" class="f">users</text></symbol><symbol id="11"><text x="11.022" y="1.67" class="f">Allowed:</text><text x="20.04" y="1.67" class="f">read</text><text x="25.05" y="1.67" class="f">query</text><text x="31.062" y="1.67" class="f">on</text><text x="34.068" y="1.67" class="f">users.</text><text x="41.082" y="1.67" class="f">Read-only</text><text x="51.102" y="1.67" class="f">queries</text><text x="59.118" y="1.67" class="f">are</text><text x="63.126" y="1.67" class="f">safe.</text></symbol><symbol id="12"><text x="11.022" y="1.67" class="f">→</text><text x="13.026" y="1.67" class="f">3</text><text x="15.03" y="1.67" class="f">rows</text><text x="20.04" y="1.67" class="f">returned</text></symbol><symbol id="13"><text x="2.004" y="1.67" class="j">⏳</text><text x="4.008" y="1.67" class="j">HOLD</text><text x="12.024" y="1.67" class="f">DELETE</text><text x="19.038" y="1.67" class="f">FROM</text><text x="24.048" y="1.67" class="f">users</text><text x="30.06" y="1.67" class="f">WHERE</text><text x="36.072" y="1.67" class="f">id</text><text x="39.078" y="1.67" class="f">=</text><text x="41.082" y="1.67" class="f">42</text></symbol><symbol id="14"><text x="11.022" y="1.67" class="f">Held</text><text x="16.032" y="1.67" class="f">for</text><text x="20.04" y="1.67" class="f">approval:</text><text x="30.06" y="1.67" class="f">delete</text><text x="37.074" y="1.67" class="f">from</text><text x="42.084" y="1.67" class="f">users.</text><text x="49.098" y="1.67" class="f">Data</text><text x="54.108" y="1.67" class="f">changes</text><text x="62.124" y="1.67" class="f">need</text><text x="67.134" y="1.67" class="f">approval.</text></symbol><symbol id="15"><text x="11.022" y="1.67" class="f">→</text><text x="13.026" y="1.67" class="f">Would</text><text x="19.038" y="1.67" class="f">forward</text><text x="27.054" y="1.67" class="f">after</text><text x="33.066" y="1.67" class="f">approval:</text><text x="43.086" y="1.67" class="f">1</text><text x="45.09" y="1.67" class="f">row</text><text x="49.098" y="1.67" class="f">deleted</text></symbol><symbol id="16"><text x="2.004" y="1.67" class="k">✘</text><text x="4.008" y="1.67" class="k">BLOCK</text><text x="12.024" y="1.67" class="f">DROP</text><text x="17.034" y="1.67" class="f">TABLE</text><text x="23.046" y="1.67" class="f">users</text></symbol><symbol id="17"><text x="11.022" y="1.67" class="f">Blocked:</text><text x="20.04" y="1.67" class="f">drop</text><text x="25.05" y="1.67" class="f">users.</text><text x="32.064" y="1.67" class="f">Schema</text><text x="39.078" y="1.67" class="f">changes</text><text x="47.094" y="1.67" class="f">are</text><text x="51.102" y="1.67" class="f">never</text><text x="57.114" y="1.67" class="f">allowed.</text></symbol><symbol id="18"><text x="2.004" y="1.67" class="g">Shell</text><text x="8.016" y="1.67" class="g">commands:</text></symbol><symbol id="19"><text x="2.004" y="1.67" class="i">✔</text><text x="4.008" y="1.67" class="i">ALLOW</text><text x="12.024" y="1.67" class="f">ls</text><text x="15.03" y="1.67" class="f">/home/user/projects</text></symbol><symbol id="20"><text x="11.022" y="1.67" class="f">Allowed:</text><text x="20.04" y="1.67" class="f">ls</text><text x="23.046" y="1.67" class="f">command.</text><text x="32.064" y="1.67" class="f">Safe</text><text x="37.074" y="1.67" class="f">shell</text><text x="43.086" y="1.67" class="f">commands</text><text x="52.104" y="1.67" class="f">are</text><text x="56.112" y="1.67" class="f">allowed.</text></symbol><symbol id="21"><text x="11.022" y="1.67" class="f">→</text><text x="13.026" y="1.67" class="f">list</text><text x="18.036" y="1.67" class="f">directory</text><text x="28.056" y="1.67" class="f">contents</text></symbol><symbol id="22"><text x="2.004" y="1.67" class="j">⏳</text><text x="4.008" y="1.67" class="j">HOLD</text><text x="12.024" y="1.67" class="f">curl</text><text x="17.034" y="1.67" class="f">https://api.stripe.com/charges</text><text x="48.096" y="1.67" class="f">-X</text><text x="51.102" y="1.67" class="f">POST</text></symbol><symbol id="23"><text x="11.022" y="1.67" class="f">Held</text><text x="16.032" y="1.67" class="f">for</text><text x="20.04" y="1.67" class="f">approval:</text><text x="30.06" y="1.67" class="f">curl</text><text x="35.07" y="1.67" class="f">command.</text><text x="44.088" y="1.67" class="f">Risky</text><text x="50.1" y="1.67" class="f">shell</text><text x="56.112" y="1.67" class="f">commands</text><text x="65.13" y="1.67" class="f">need</text><text x="70.14" y="1.67" class="f">approval.</text></symbol><symbol id="24"><text x="11.022" y="1.67" class="f">→</text><text x="13.026" y="1.67" class="f">Would</text><text x="19.038" y="1.67" class="f">forward</text><text x="27.054" y="1.67" class="f">after</text><text x="33.066" y="1.67" class="f">approval:</text><text x="43.086" y="1.67" class="f">network</text><text x="51.102" y="1.67" class="f">request</text></symbol><symbol id="25"><text x="2.004" y="1.67" class="k">✘</text><text x="4.008" y="1.67" class="k">BLOCK</text><text x="12.024" y="1.67" class="f">rm</text><text x="15.03" y="1.67" class="f">-rf</text><text x="19.038" y="1.67" class="f">/</text></symbol><symbol id="26"><text x="11.022" y="1.67" class="f">Blocked:</text><text x="20.04" y="1.67" class="f">rm</text><text x="23.046" y="1.67" class="f">command.</text><text x="32.064" y="1.67" class="f">Destructive</text><text x="44.088" y="1.67" class="f">shell</text><text x="50.1" y="1.67" class="f">commands</text><text x="59.118" y="1.67" class="f">are</text><text x="63.126" y="1.67" class="f">never</text><text x="69.138" y="1.67" class="f">allowed.</text></symbol><symbol id="a"><path fill="transparent" d="M0 0h85v36H0z"/></symbol></defs><path class="a" d="M0 0h85v75.985H0z"/><g style="animation-duration:11s;animation-iteration-count:infinite;animation-name:m;animation-timing-function:steps(1,end)"><svg width="3485"><svg><use xlink:href="#a"/></svg><svg x="85"><use xlink:href="#a"/><use xlink:href="#1"/></svg><svg x="170"><use xlink:href="#a"/><use xlink:href="#1"/></svg><svg x="255"><use xlink:href="#a"/><use xlink:href="#1"/><use xlink:href="#2" y="4.342"/></svg><svg x="340"><use xlink:href="#a"/><use xlink:href="#1"/><use xlink:href="#2" y="4.342"/><use xlink:href="#3" y="6.513"/></svg><svg x="425"><use xlink:href="#a"/><use xlink:href="#1"/><use xlink:href="#2" y="4.342"/><use xlink:href="#3" y="6.513"/><use xlink:href="#4" y="8.684"/></svg><svg x="510"><use xlink:href="#a"/><use xlink:href="#1"/><use xlink:href="#2" y="4.342"/><use xlink:href="#3" y="6.513"/><use xlink:href="#4" y="8.684"/><use xlink:href="#5" y="10.855"/></svg><svg x="595"><use xlink:href="#a"/><use xlink:href="#1"/><use xlink:href="#2" y="4.342"/><use xlink:href="#3" y="6.513"/><use xlink:href="#4" y="8.684"/><use xlink:href="#5" y="10.855"/></svg><svg x="680"><use xlink:href="#a"/><use xlink:href="#1"/><use xlink:href="#2" y="4.342"/><use xlink:href="#3" y="6.513"/><use xlink:href="#4" y="8.684"/><use xlink:href="#5" y="10.855"/><use xlink:href="#6" y="15.197"/></svg><svg x="765"><use xlink:href="#a"/><use xlink:href="#1"/><use xlink:href="#2" y="4.342"/><use xlink:href="#3" y="6.513"/><use xlink:href="#4" y="8.684"/><use xlink:href="#5" y="10.855"/><use xlink:href="#6" y="15.197"/><use xlink:href="#7" y="17.368"/></svg><svg x="850"><use xlink:href="#a"/><use xlink:href="#1"/><use xlink:href="#2" y="4.342"/><use xlink:href="#3" y="6.513"/><use xlink:href="#4" y="8.684"/><use xlink:href="#5" y="10.855"/><use xlink:href="#6" y="15.197"/><use xlink:href="#7" y="17.368"/></svg><svg x="935"><use xlink:href="#a"/><use xlink:href="#1"/><use xlink:href="#2" y="4.342"/><use xlink:href="#3" y="6.513"/><use xlink:href="#4" y="8.684"/><use xlink:href="#5" y="10.855"/><use xlink:href="#6" y="15.197"/><use xlink:href="#7" y="17.368"/><use xlink:href="#8" y="21.71"/></svg><svg x="1020"><use xlink:href="#a"/><use xlink:href="#1"/><use xlink:href="#2" y="4.342"/><use xlink:href="#3" y="6.513"/><use xlink:href="#4" y="8.684"/><use xlink:href="#5" y="10.855"/><use xlink:href="#6" y="15.197"/><use xlink:href="#7" y="17.368"/><use xlink:href="#8" y="21.71"/></svg><svg x="1105"><use xlink:href="#a"/><use xlink:href="#1"/><use xlink:href="#2" y="4.342"/><use xlink:href="#3" y="6.513"/><use xlink:href="#4" y="8.684"/><use xlink:href="#5" y="10.855"/><use xlink:href="#6" y="15.197"/><use xlink:href="#7" y="17.368"/><use xlink:href="#8" y="21.71"/><use xlink:href="#9" y="26.052"/></svg><svg x="1190"><use xlink:href="#a"/><use xlink:href="#1"/><use xlink:href="#2" y="4.342"/><use xlink:href="#3" y="6.513"/><use xlink:href="#4" y="8.684"/><use xlink:href="#5" y="10.855"/><use xlink:href="#6" y="15.197"/><use xlink:href="#7" y="17.368"/><use xlink:href="#8" y="21.71"/><use xlink:href="#9" y="26.052"/></svg><svg x="1275"><use xlink:href="#a"/><use xlink:href="#1"/><use xlink:href="#2" y="4.342"/><use xlink:href="#3" y="6.513"/><use xlink:href="#4" y="8.684"/><use xlink:href="#5" y="10.855"/><use xlink:href="#6" y="15.197"/><use xlink:href="#7" y="17.368"/><use xlink:href="#8" y="21.71"/><use xlink:href="#9" y="26.052"/><use xlink:href="#10" y="30.394"/></svg><svg x="1360"><use xlink:href="#a"/><use xlink:href="#1"/><use xlink:href="#2" y="4.342"/><use xlink:href="#3" y="6.513"/><use xlink:href="#4" y="8.684"/><use xlink:href="#5" y="10.855"/><use xlink:href="#6" y="15.197"/><use xlink:href="#7" y="17.368"/><use xlink:href="#8" y="21.71"/><use xlink:href="#9" y="26.052"/><use xlink:href="#10" y="30.394"/><use xlink:href="#11" y="32.565"/></svg><svg x="1445"><use xlink:href="#a"/><use xlink:href="#1"/><use xlink:href="#2" y="4.342"/><use xlink:href="#3" y="6.513"/><use xlink:href="#4" y="8.684"/><use xlink:href="#5" y="10.855"/><use xlink:href="#6" y="15.197"/><use xlink:href="#7" y="17.368"/><use xlink:href="#8" y="21.71"/><use xlink:href="#9" y="26.052"/><use xlink:href="#10" y="30.394"/><use xlink:href="#11" y="32.565"/><use xlink:href="#12" y="34.736"/></svg><svg x="1530"><use xlink:href="#a"/><use xlink:href="#1"/><use xlink:href="#2" y="4.342"/><use xlink:href="#3" y="6.513"/><use xlink:href="#4" y="8.684"/><use xlink:href="#5" y="10.855"/><use xlink:href="#6" y="15.197"/><use xlink:href="#7" y="17.368"/><use xlink:href="#8" y="21.71"/><use xlink:href="#9" y="26.052"/><use xlink:href="#10" y="30.394"/><use xlink:href="#11" y="32.565"/><use xlink:href="#12" y="34.736"/></svg><svg x="1615"><use xlink:href="#a"/><use xlink:href="#1"/><use xlink:href="#2" y="4.342"/><use xlink:href="#3" y="6.513"/><use xlink:href="#4" y="8.684"/><use xlink:href="#5" y="10.855"/><use xlink:href="#6" y="15.197"/><use xlink:href="#7" y="17.368"/><use xlink:href="#8" y="21.71"/><use xlink:href="#9" y="26.052"/><use xlink:href="#10" y="30.394"/><use xlink:href="#11" y="32.565"/><use xlink:href="#12" y="34.736"/><use xlink:href="#13" y="39.078"/></svg><svg x="1700"><use xlink:href="#a"/><use xlink:href="#1"/><use xlink:href="#2" y="4.342"/><use xlink:href="#3" y="6.513"/><use xlink:href="#4" y="8.684"/><use xlink:href="#5" y="10.855"/><use xlink:href="#6" y="15.197"/><use xlink:href="#7" y="17.368"/><use xlink:href="#8" y="21.71"/><use xlink:href="#9" y="26.052"/><use xlink:href="#10" y="30.394"/><use xlink:href="#11" y="32.565"/><use xlink:href="#12" y="34.736"/><use xlink:href="#13" y="39.078"/><use xlink:href="#14" y="41.249"/></svg><svg x="1785"><use xlink:href="#a"/><use xlink:href="#1"/><use xlink:href="#2" y="4.342"/><use xlink:href="#3" y="6.513"/><use xlink:href="#4" y="8.684"/><use xlink:href="#5" y="10.855"/><use xlink:href="#6" y="15.197"/><use xlink:href="#7" y="17.368"/><use xlink:href="#8" y="21.71"/><use xlink:href="#9" y="26.052"/><use xlink:href="#10" y="30.394"/><use xlink:href="#11" y="32.565"/><use xlink:href="#12" y="34.736"/><use xlink:href="#13" y="39.078"/><use xlink:href="#14" y="41.249"/><use xlink:href="#15" y="43.42"/></svg><svg x="1870"><use xlink:href="#a"/><use xlink:href="#1"/><use xlink:href="#2" y="4.342"/><use xlink:href="#3" y="6.513"/><use xlink:href="#4" y="8.684"/><use xlink:href="#5" y="10.855"/><use xlink:href="#6" y="15.197"/><use xlink:href="#7" y="17.368"/><use xlink:href="#8" y="21.71"/><use xlink:href="#9" y="26.052"/><use xlink:href="#10" y="30.394"/><use xlink:href="#11" y="32.565"/><use xlink:href="#12" y="34.736"/><use xlink:href="#13" y="39.078"/><use xlink:href="#14" y="41.249"/><use xlink:href="#15" y="43.42"/></svg><svg x="1955"><use xlink:href="#a"/><use xlink:href="#1"/><use xlink:href="#2" y="4.342"/><use xlink:href="#3" y="6.513"/><use xlink:href="#4" y="8.684"/><use xlink:href="#5" y="10.855"/><use xlink:href="#6" y="15.197"/><use xlink:href="#7" y="17.368"/><use xlink:href="#8" y="21.71"/><use xlink:href="#9" y="26.052"/><use xlink:href="#10" y="30.394"/><use xlink:href="#11" y="32.565"/><use xlink:href="#12" y="34.736"/><use xlink:href="#13" y="39.078"/><use xlink:href="#14" y="41.249"/><use xlink:href="#15" y="43.42"/><use xlink:href="#16" y="47.762"/></svg><svg x="2040"><use xlink:href="#a"/><use xlink:href="#1"/><use xlink:href="#2" y="4.342"/><use xlink:href="#3" y="6.513"/><use xlink:href="#4" y="8.684"/><use xlink:href="#5" y="10.855"/><use xlink:href="#6" y="15.197"/><use xlink:href="#7" y="17.368"/><use xlink:href="#8" y="21.71"/><use xlink:href="#9" y="26.052"/><use xlink:href="#10" y="30.394"/><use xlink:href="#11" y="32.565"/><use xlink:href="#12" y="34.736"/><use xlink:href="#13" y="39.078"/><use xlink:href="#14" y="41.249"/><use xlink:href="#15" y="43.42"/><use xlink:href="#16" y="47.762"/><use xlink:href="#17" y="49.933"/></svg><svg x="2125"><use xlink:href="#a"/><use xlink:href="#1"/><use xlink:href="#2" y="4.342"/><use xlink:href="#3" y="6.513"/><use xlink:href="#4" y="8.684"/><use xlink:href="#5" y="10.855"/><use xlink:href="#6" y="15.197"/><use xlink:href="#7" y="17.368"/><use xlink:href="#8" y="21.71"/><use xlink:href="#9" y="26.052"/><use xlink:href="#10" y="30.394"/><use xlink:href="#11" y="32.565"/><use xlink:href="#12" y="34.736"/><use xlink:href="#13" y="39.078"/><use xlink:href="#14" y="41.249"/><use xlink:href="#15" y="43.42"/><use xlink:href="#16" y="47.762"/><use xlink:href="#17" y="49.933"/></svg><svg x="2210"><use xlink:href="#a"/><use xlink:href="#1"/><use xlink:href="#2" y="4.342"/><use xlink:href="#3" y="6.513"/><use xlink:href="#4" y="8.684"/><use xlink:href="#5" y="10.855"/><use xlink:href="#6" y="15.197"/><use xlink:href="#7" y="17.368"/><use xlink:href="#8" y="21.71"/><use xlink:href="#9" y="26.052"/><use xlink:href="#10" y="30.394"/><use xlink:href="#11" y="32.565"/><use xlink:href="#12" y="34.736"/><use xlink:href="#13" y="39.078"/><use xlink:href="#14" y="41.249"/><use xlink:href="#15" y="43.42"/><use xlink:href="#16" y="47.762"/><use xlink:href="#17" y="49.933"/><use xlink:href="#18" y="54.275"/></svg><svg x="2295"><use xlink:href="#a"/><use xlink:href="#1"/><use xlink:href="#2" y="4.342"/><use xlink:href="#3" y="6.513"/><use xlink:href="#4" y="8.684"/><use xlink:href="#5" y="10.855"/><use xlink:href="#6" y="15.197"/><use xlink:href="#7" y="17.368"/><use xlink:href="#8" y="21.71"/><use xlink:href="#9" y="26.052"/><use xlink:href="#10" y="30.394"/><use xlink:href="#11" y="32.565"/><use xlink:href="#12" y="34.736"/><use xlink:href="#13" y="39.078"/><use xlink:href="#14" y="41.249"/><use xlink:href="#15" y="43.42"/><use xlink:href="#16" y="47.762"/><use xlink:href="#17" y="49.933"/><use xlink:href="#18" y="54.275"/></svg><svg x="2380"><use xlink:href="#a"/><use xlink:href="#1"/><use xlink:href="#2" y="4.342"/><use xlink:href="#3" y="6.513"/><use xlink:href="#4" y="8.684"/><use xlink:href="#5" y="10.855"/><use xlink:href="#6" y="15.197"/><use xlink:href="#7" y="17.368"/><use xlink:href="#8" y="21.71"/><use xlink:href="#9" y="26.052"/><use xlink:href="#10" y="30.394"/><use xlink:href="#11" y="32.565"/><use xlink:href="#12" y="34.736"/><use xlink:href="#13" y="39.078"/><use xlink:href="#14" y="41.249"/><use xlink:href="#15" y="43.42"/><use xlink:href="#16" y="47.762"/><use xlink:href="#17" y="49.933"/><use xlink:href="#18" y="54.275"/><use xlink:href="#19" y="58.617"/></svg><svg x="2465"><use xlink:href="#a"/><use xlink:href="#1"/><use xlink:href="#2" y="4.342"/><use xlink:href="#3" y="6.513"/><use xlink:href="#4" y="8.684"/><use xlink:href="#5" y="10.855"/><use xlink:href="#6" y="15.197"/><use xlink:href="#7" y="17.368"/><use xlink:href="#8" y="21.71"/><use xlink:href="#9" y="26.052"/><use xlink:href="#10" y="30.394"/><use xlink:href="#11" y="32.565"/><use xlink:href="#12" y="34.736"/><use xlink:href="#13" y="39.078"/><use xlink:href="#14" y="41.249"/><use xlink:href="#15" y="43.42"/><use xlink:href="#16" y="47.762"/><use xlink:href="#17" y="49.933"/><use xlink:href="#18" y="54.275"/><use xlink:href="#19" y="58.617"/><use xlink:href="#20" y="60.788"/></svg><svg x="2550"><use xlink:href="#a"/><use xlink:href="#1"/><use xlink:href="#2" y="4.342"/><use xlink:href="#3" y="6.513"/><use xlink:href="#4" y="8.684"/><use xlink:href="#5" y="10.855"/><use xlink:href="#6" y="15.197"/><use xlink:href="#7" y="17.368"/><use xlink:href="#8" y="21.71"/><use xlink:href="#9" y="26.052"/><use xlink:href="#10" y="30.394"/><use xlink:href="#11" y="32.565"/><use xlink:href="#12" y="34.736"/><use xlink:href="#13" y="39.078"/><use xlink:href="#14" y="41.249"/><use xlink:href="#15" y="43.42"/><use xlink:href="#16" y="47.762"/><use xlink:href="#17" y="49.933"/><use xlink:href="#18" y="54.275"/><use xlink:href="#19" y="58.617"/><use xlink:href="#20" y="60.788"/><use xlink:href="#21" y="62.959"/></svg><svg x="2635"><use xlink:href="#a"/><use xlink:href="#1"/><use xlink:href="#2" y="4.342"/><use xlink:href="#3" y="6.513"/><use xlink:href="#4" y="8.684"/><use xlink:href="#5" y="10.855"/><use xlink:href="#6" y="15.197"/><use xlink:href="#7" y="17.368"/><use xlink:href="#8" y="21.71"/><use xlink:href="#9" y="26.052"/><use xlink:href="#10" y="30.394"/><use xlink:href="#11" y="32.565"/><use xlink:href="#12" y="34.736"/><use xlink:href="#13" y="39.078"/><use xlink:href="#14" y="41.249"/><use xlink:href="#15" y="43.42"/><use xlink:href="#16" y="47.762"/><use xlink:href="#17" y="49.933"/><use xlink:href="#18" y="54.275"/><use xlink:href="#19" y="58.617"/><use xlink:href="#20" y="60.788"/><use xlink:href="#21" y="62.959"/></svg><svg x="2720"><use xlink:href="#a"/><use xlink:href="#1"/><use xlink:href="#2" y="4.342"/><use xlink:href="#3" y="6.513"/><use xlink:href="#4" y="8.684"/><use xlink:href="#5" y="10.855"/><use xlink:href="#6" y="15.197"/><use xlink:href="#7" y="17.368"/><use xlink:href="#8" y="21.71"/><use xlink:href="#9" y="26.052"/><use xlink:href="#10" y="30.394"/><use xlink:href="#11" y="32.565"/><use xlink:href="#12" y="34.736"/><use xlink:href="#13" y="39.078"/><use xlink:href="#14" y="41.249"/><use xlink:href="#15" y="43.42"/><use xlink:href="#16" y="47.762"/><use xlink:href="#17" y="49.933"/><use xlink:href="#18" y="54.275"/><use xlink:href="#19" y="58.617"/><use xlink:href="#20" y="60.788"/><use xlink:href="#21" y="62.959"/><use xlink:href="#22" y="67.301"/></svg><svg x="2805"><use xlink:href="#a"/><use xlink:href="#1"/><use xlink:href="#2" y="4.342"/><use xlink:href="#3" y="6.513"/><use xlink:href="#4" y="8.684"/><use xlink:href="#5" y="10.855"/><use xlink:href="#6" y="15.197"/><use xlink:href="#7" y="17.368"/><use xlink:href="#8" y="21.71"/><use xlink:href="#9" y="26.052"/><use xlink:href="#10" y="30.394"/><use xlink:href="#11" y="32.565"/><use xlink:href="#12" y="34.736"/><use xlink:href="#13" y="39.078"/><use xlink:href="#14" y="41.249"/><use xlink:href="#15" y="43.42"/><use xlink:href="#16" y="47.762"/><use xlink:href="#17" y="49.933"/><use xlink:href="#18" y="54.275"/><use xlink:href="#19" y="58.617"/><use xlink:href="#20" y="60.788"/><use xlink:href="#21" y="62.959"/><use xlink:href="#22" y="67.301"/><use xlink:href="#23" y="69.472"/></svg><svg x="2890"><use xlink:href="#a"/><use xlink:href="#1"/><use xlink:href="#2" y="4.342"/><use xlink:href="#3" y="6.513"/><use xlink:href="#4" y="8.684"/><use xlink:href="#5" y="10.855"/><use xlink:href="#6" y="15.197"/><use xlink:href="#7" y="17.368"/><use xlink:href="#8" y="21.71"/><use xlink:href="#9" y="26.052"/><use xlink:href="#10" y="30.394"/><use xlink:href="#11" y="32.565"/><use xlink:href="#12" y="34.736"/><use xlink:href="#13" y="39.078"/><use xlink:href="#14" y="41.249"/><use xlink:href="#15" y="43.42"/><use xlink:href="#16" y="47.762"/><use xlink:href="#17" y="49.933"/><use xlink:href="#18" y="54.275"/><use xlink:href="#19" y="58.617"/><use xlink:href="#20" y="60.788"/><use xlink:href="#21" y="62.959"/><use xlink:href="#22" y="67.301"/><use xlink:href="#23" y="69.472"/><use xlink:href="#24" y="71.643"/></svg><svg x="2975"><use xlink:href="#a"/><use xlink:href="#1"/><use xlink:href="#2" y="4.342"/><use xlink:href="#3" y="6.513"/><use xlink:href="#4" y="8.684"/><use xlink:href="#5" y="10.855"/><use xlink:href="#6" y="15.197"/><use xlink:href="#7" y="17.368"/><use xlink:href="#8" y="21.71"/><use xlink:href="#9" y="26.052"/><use xlink:href="#10" y="30.394"/><use xlink:href="#11" y="32.565"/><use xlink:href="#12" y="34.736"/><use xlink:href="#13" y="39.078"/><use xlink:href="#14" y="41.249"/><use xlink:href="#15" y="43.42"/><use xlink:href="#16" y="47.762"/><use xlink:href="#17" y="49.933"/><use xlink:href="#18" y="54.275"/><use xlink:href="#19" y="58.617"/><use xlink:href="#20" y="60.788"/><use xlink:href="#21" y="62.959"/><use xlink:href="#22" y="67.301"/><use xlink:href="#23" y="69.472"/><use xlink:href="#24" y="71.643"/></svg><svg x="3060"><use xlink:href="#a"/><use xlink:href="#2" y="2.171"/><use xlink:href="#3" y="4.342"/><use xlink:href="#4" y="6.513"/><use xlink:href="#5" y="8.684"/><use xlink:href="#6" y="13.026"/><use xlink:href="#7" y="15.197"/><use xlink:href="#8" y="19.539"/><use xlink:href="#9" y="23.881"/><use xlink:href="#10" y="28.223"/><use xlink:href="#11" y="30.394"/><use xlink:href="#12" y="32.565"/><use xlink:href="#13" y="36.907"/><use xlink:href="#14" y="39.078"/><use xlink:href="#15" y="41.249"/><use xlink:href="#16" y="45.591"/><use xlink:href="#17" y="47.762"/><use xlink:href="#18" y="52.104"/><use xlink:href="#19" y="56.446"/><use xlink:href="#20" y="58.617"/><use xlink:href="#21" y="60.788"/><use xlink:href="#22" y="65.13"/><use xlink:href="#23" y="67.301"/><use xlink:href="#24" y="69.472"/><use xlink:href="#25" y="73.814"/></svg><svg x="3145"><use xlink:href="#a"/><use xlink:href="#2"/><use xlink:href="#3" y="2.171"/><use xlink:href="#4" y="4.342"/><use xlink:href="#5" y="6.513"/><use xlink:href="#6" y="10.855"/><use xlink:href="#7" y="13.026"/><use xlink:href="#8" y="17.368"/><use xlink:href="#9" y="21.71"/><use xlink:href="#10" y="26.052"/><use xlink:href="#11" y="28.223"/><use xlink:href="#12" y="30.394"/><use xlink:href="#13" y="34.736"/><use xlink:href="#14" y="36.907"/><use xlink:href="#15" y="39.078"/><use xlink:href="#16" y="43.42"/><use xlink:href="#17" y="45.591"/><use xlink:href="#18" y="49.933"/><use xlink:href="#19" y="54.275"/><use xlink:href="#20" y="56.446"/><use xlink:href="#21" y="58.617"/><use xlink:href="#22" y="62.959"/><use xlink:href="#23" y="65.13"/><use xlink:href="#24" y="67.301"/><use xlink:href="#25" y="71.643"/><use xlink:href="#26" y="73.814"/></svg><svg x="3230"><use xlink:href="#a"/><use xlink:href="#3"/><use xlink:href="#4" y="2.171"/><use xlink:href="#5" y="4.342"/><use xlink:href="#6" y="8.684"/><use xlink:href="#7" y="10.855"/><use xlink:href="#8" y="15.197"/><use xlink:href="#9" y="19.539"/><use xlink:href="#10" y="23.881"/><use xlink:href="#11" y="26.052"/><use xlink:href="#12" y="28.223"/><use xlink:href="#13" y="32.565"/><use xlink:href="#14" y="34.736"/><use xlink:href="#15" y="36.907"/><use xlink:href="#16" y="41.249"/><use xlink:href="#17" y="43.42"/><use xlink:href="#18" y="47.762"/><use xlink:href="#19" y="52.104"/><use xlink:href="#20" y="54.275"/><use xlink:href="#21" y="56.446"/><use xlink:href="#22" y="60.788"/><use xlink:href="#23" y="62.959"/><use xlink:href="#24" y="65.13"/><use xlink:href="#25" y="69.472"/><use xlink:href="#26" y="71.643"/></svg><svg x="3315"><use xlink:href="#a"/><use xlink:href="#4"/><use xlink:href="#5" y="2.171"/><use xlink:href="#6" y="6.513"/><use xlink:href="#7" y="8.684"/><use xlink:href="#8" y="13.026"/><use xlink:href="#9" y="17.368"/><use xlink:href="#10" y="21.71"/><use xlink:href="#11" y="23.881"/><use xlink:href="#12" y="26.052"/><use xlink:href="#13" y="30.394"/><use xlink:href="#14" y="32.565"/><use xlink:href="#15" y="34.736"/><use xlink:href="#16" y="39.078"/><use xlink:href="#17" y="41.249"/><use xlink:href="#18" y="45.591"/><use xlink:href="#19" y="49.933"/><use xlink:href="#20" y="52.104"/><use xlink:href="#21" y="54.275"/><use xlink:href="#22" y="58.617"/><use xlink:href="#23" y="60.788"/><use xlink:href="#24" y="62.959"/><use xlink:href="#25" y="67.301"/><use xlink:href="#26" y="69.472"/><use xlink:href="#8" y="73.814"/></svg><svg x="3400"><use xlink:href="#a"/><use xlink:href="#5"/><use xlink:href="#6" y="4.342"/><use xlink:href="#7" y="6.513"/><use xlink:href="#8" y="10.855"/><use xlink:href="#9" y="15.197"/><use xlink:href="#10" y="19.539"/><use xlink:href="#11" y="21.71"/><use xlink:href="#12" y="23.881"/><use xlink:href="#13" y="28.223"/><use xlink:href="#14" y="30.394"/><use xlink:href="#15" y="32.565"/><use xlink:href="#16" y="36.907"/><use xlink:href="#17" y="39.078"/><use xlink:href="#18" y="43.42"/><use xlink:href="#19" y="47.762"/><use xlink:href="#20" y="49.933"/><use xlink:href="#21" y="52.104"/><use xlink:href="#22" y="56.446"/><use xlink:href="#23" y="58.617"/><use xlink:href="#24" y="60.788"/><use xlink:href="#25" y="65.13"/><use xlink:href="#26" y="67.301"/><use xlink:href="#8" y="71.643"/><text x="2.004" y="75.484" class="f">Audit</text><text x="8.016" y="75.484" class="f">log</text><text x="12.024" y="75.484" class="f">→</text><text x="14.028" y="75.484" class="f">.sidclaw/audit.jsonl</text><text x="35.07" y="75.484" class="f">(6</text><text x="38.076" y="75.484" class="f">entries</text><text x="46.092" y="75.484" class="f">written)</text></svg></svg></g></g></svg></svg>